<?xml version="1.0" encoding="utf-8"?>
<!-- Generator: Adobe Illustrator 16.0.0, SVG Export Plug-In . SVG Version: 6.00 Build 0)  -->
<!DOCTYPE svg PUBLIC "-//W3C//DTD SVG 1.1//EN" "http://www.w3.org/Graphics/SVG/1.1/DTD/svg11.dtd">
<svg version="1.1" id="Capa_1" xmlns="http://www.w3.org/2000/svg" xmlns:xlink="http://www.w3.org/1999/xlink" x="0px" y="0px"
	 width="128px" height="128px" viewBox="0 0 128 128" enable-background="new 0 0 128 128" xml:space="preserve">
<g>
	<g>
		<path fill="#FFFFFF" d="M87.812,12.469L87.812,12.469C87.805,12.481,87.801,12.486,87.812,12.469z"/>
		<path fill="#FFFFFF" d="M75.648,0.049c-0.027,0.017-0.049,0.031-0.052,0.025C75.615,0.064,75.633,0.06,75.648,0.049z"/>
		<path fill="#FFFFFF" d="M87.733,11.754l-1.362-0.803l-0.617-0.369l-0.551-0.454l-1.149-0.954
			c-1.413-1.268-2.935-2.743-3.769-4.392l0.304,0.063l-0.479-0.72l-0.447-0.776l-0.9-1.58c-0.343-0.536-0.729-1.063-1.285-1.446
			l-0.209-0.127c-0.107-0.061-0.192-0.084-0.271-0.108c-0.168-0.042-0.319-0.06-0.467-0.072C76.383,0.004,76.237-0.002,76.092,0
			c-0.144,0.01-0.312-0.017-0.443,0.049c0.027-0.01,0.057-0.025,0.102-0.021c0.096,0,0.228,0.009,0.349,0.021
			c0.213,0.025,0.426,0.066,0.426,0.066c-0.197,0.009-0.468-0.004-0.813,0.041c-0.284,0.207-0.521,0.422-0.788,0.662
			c-0.154,0.125-0.289,0.264-0.421,0.402c-0.038,0.039-0.078,0.082-0.114,0.121c-0.011,0.014-0.026,0.027-0.038,0.042
			c-0.081,0.082-0.159,0.165-0.233,0.252c-0.217,0.292-0.423,0.569-0.61,0.805l0.025-0.131c0.961-1.342-0.082,0.08,0.188-0.559
			l0.147-0.254l-0.127,0.12l-0.146,0.25c-0.011-0.046-0.059-0.052,0.092-0.281l-0.233,0.304c-0.619,0.552-0.731,0.463-0.816,0.269
			c-0.11,0.184,0.168,0.12-0.431,0.802l0.022-0.131l-0.524,0.857l-0.333,0.307C71.207,4.261,71.089,4.46,70.9,4.687
			c0.069,0.172,0.142,0.343,0.204,0.519c0.423,0.125,0.479,0.726,0.857,0.908c0.334-0.309,1.028-1.092,1.371-1.417
			c0.03-0.03,0.063-0.064,0.099-0.096l0.008-0.006l0.006-0.009c0.146-0.139,0.295-0.281,0.445-0.428
			c0.037-0.012,0.063-0.015,0.078-0.009c0.327-0.276,0.647-0.519,0.972-0.768c0.159-0.123,0.327-0.252,0.491-0.377
			c0.168-0.138,0.32-0.241,0.421-0.288C75.922,2.645,76,2.571,76.088,2.509c0.105-0.09,0.203,0.046,0.269,0.131
			c0.111,0.143,0.336,0.57,0.553,1.003l0.045-0.045c0.305,0.486,0.613,0.982,0.947,1.504c1.927,2.818,4.813,5.417,8.403,7.233
			l0.34,0.161l0.18,0.078c0.078,0.026,0.168,0.042,0.234,0.054c0.146,0.018,0.258,0.046,0.488,0.008
			c0.043-0.016,0.057-0.012,0.142-0.056c0.042-0.024,0.103-0.082,0.112-0.1l0.011-0.013c0.012-0.024,0.045-0.078,0.038-0.073
			c0.036-0.08,0.052-0.164,0.049-0.244C87.891,11.99,87.828,11.861,87.733,11.754z"/>
	</g>
	<g>
		<path fill="#FFFFFF" d="M66.215,93.193c-0.549,0.935-2.035,0.946-1.885,2.876c0.154,0.786,1.459,1.087,1.647,1.119
			c0.993-0.126,0.985-2.121,0.938-3.353L66.215,93.193z"/>
		<path fill="#FFFFFF" d="M68.93,96.069l1.153-0.462l-1.202,0.104C68.97,95.841,68.844,95.927,68.93,96.069z"/>
		<path fill="#FFFFFF" d="M65.523,90.516c0,0-0.171,1.03-0.152,1.011c-0.141,0.086-0.502-0.267-0.549-0.049l0.426,0.721
			C66.563,91.404,65.485,91.839,65.523,90.516z"/>
		<path fill="#FFFFFF" d="M69.991,81.015c-0.521-0.105-1.185-0.964-1.733-0.303c0.114,0.275,0.502,0.454,0.576,1.062
			C69.413,82.026,70.009,81.479,69.991,81.015z"/>
		<path fill="#FFFFFF" d="M73.944,53.707l-0.215-0.381c-0.153-0.899-1.098-1.087-1.695-0.622c0.679,0.312,0.51,1.228,0.245,1.693
			C73.093,54.625,73.548,53.911,73.944,53.707z"/>
		<path fill="#FFFFFF" d="M70.142,40.051c0.947-0.871,2.28-1.676,2.611-2.904c-1.268-1.316-1.485,1.173-2.753,0.358
			c-0.445,0.983-1.371,1.172-1.391,2.356L70.142,40.051z"/>
		<path fill="#FFFFFF" d="M65.098,39.663c0.529,0.964,1.24-0.188,1.552-0.671c-0.853-2.357,1.996-3.938,0.341-6.32
			c-3.624-0.682-0.916,3.396-2.367,4.293C64.777,37.932,65.013,38.518,65.098,39.663z"/>
		<path fill="#FFFFFF" d="M68.76,32.707c0.104-0.187,0.028-0.51-0.008-0.68c-0.229-0.256-0.636,0.046-0.929,0.169
			C67.719,32.405,68.269,33.218,68.76,32.707z"/>
		<path fill="#FFFFFF" d="M32.491,66.091c-0.775,0.151-1.08,1.458-1.118,1.647c0.124,0.983,2.119,0.975,3.359,0.937l0.644-0.7
			C34.439,67.416,34.431,65.932,32.491,66.091z"/>
		<path fill="#FFFFFF" d="M32.5,70.682l0.463,1.153l-0.103-1.202C32.725,70.717,32.642,70.597,32.5,70.682z"/>
		<path fill="#FFFFFF" d="M37.08,66.576l-0.712,0.423c0.797,1.316,0.36,0.239,1.685,0.286c0,0-1.029-0.19-1.021-0.151
			C36.947,66.99,37.315,66.623,37.08,66.576z"/>
		<path fill="#FFFFFF" d="M46.8,70.587c-0.248,0.587,0.292,1.172,0.746,1.162c0.112-0.53,0.974-1.183,0.302-1.731
			C47.563,70.123,47.402,70.52,46.8,70.587z"/>
		<path fill="#FFFFFF" d="M87.089,68.533c0.312-0.456,0.198-1.068,0.936-1.344c-0.17-0.767-0.88-0.823-1.257-0.511
			c-0.143-1.418-2.595-0.757-2.255-2.554c-2.099,1.039-2.411-1.647-4.04-2.308c-2.052-0.759-0.925,0.935-1.711,1.814
			c-0.947-0.738-2.148,0.019-2.84,0.369c-0.576-0.066-0.822-0.802-0.406-1.012c-1.115-0.607-2.26-1.089-3.424-1.515
			c0.009-0.027,0.018-0.046,0.018-0.083l-0.823-0.182v0.012c-0.263-0.076-0.54-0.163-0.813-0.239
			c0.112-0.454,0.076-0.852-0.634-1.136c0.114-0.083,0.208,0.048,0.32-0.037l-0.218-0.9c-0.416-0.093-0.908-0.32-1.372-0.225
			c0.06-0.199-0.435-0.426-0.245-0.719c0.088-0.737,0.87,0,1.258-0.218c-0.283-1.912-0.112-4.08,1.09-5.687
			c1.494,0.243,1.561-1.791,1.666-2.641c1.606-1.392-0.74-3.917,0.805-4.902c0.775,0.965-0.559,2.007,0.434,2.375l0.549-0.227
			c0.511-0.7,1.496-1.731,0.521-2.459c-0.69,0.284-1.222,0.189-1.694,0.226c-0.189-0.398-0.577-0.569-0.626-1.031
			c0.03-0.663,0.437-1.307,1.157-1.114c0.168,0.415-0.19,0.708-0.211,1.039c0.777,0.332,1.137-0.767,1.508-1.059
			c-2.047,0.162-2.365-1.808-4.042-0.324l-0.112-1.098c-1.46-1.22-2.461,2.859-3.844,0.625c-0.463-0.312-1.068-0.207-1.343-0.927
			c-0.777,0.16-0.833,0.879-0.511,1.249c-1.428,0.143-0.766,2.593-2.564,2.253c1.05,2.1-1.638,2.422-2.301,4.029
			c-0.768,2.074,0.938,0.938,1.818,1.714c-0.736,0.965,0.01,2.158,0.357,2.849c-0.055,0.568-0.801,0.831-1.011,0.407
			c-1.051,1.958-1.798,4.001-2.329,6.102c-0.613-0.085-1.248-0.331-1.912-1.039l0.324,0.357c0.057,0.209-0.172,0.313-0.361,0.417
			l0.932,1.145c-0.551-0.131-1.099-0.227-1.632-0.169c-0.49,1.495-3.056,0.131-3.671,1.759c-2.988-0.121-1.836-0.918-4.958-1.146
			c-1.534,0.873-3.253,2-5.176,2.226c-0.688,0.086-1.487-0.321-1.466-0.681c-0.785,0.367-1.949,0.767-2.813,1.002
			c-3.102,2.509,1.346,2.386,2.63,2.092c0.031,1.164-1.864,1.058-1.359,2.005c0.208,0.4,0.427,0.805,0.708,0.992l0.645-0.821
			c2.195-0.239-0.445,1.572,1.219,2.09c0.277-0.14,0.416-0.208,0.496-0.417c0.488-0.747,0.235-0.944-0.307-1.351
			c1.924-0.796,1.951,2.442,2.981,2.156c1.344-0.681,0.058-2.298,0.255-3.019c0.435,1.854,3.293,2.471,5.43,2.404
			c1.887-1.042,4.26,0.398,6.566-0.748c0.021,1.021,0.118,2.052-1.066,3.172l0.342-0.315c0.207-0.065,0.311,0.171,0.417,0.352
			l1.143-0.926c-0.132,0.547-0.227,1.096-0.17,1.627c1.495,0.5,0.134,3.065,1.76,3.669c-0.112,3.001-0.916,1.837-1.133,4.961
			c0.859,1.533,1.986,3.254,2.213,5.174c0.085,0.691-0.323,1.484-0.681,1.458c0.378,0.805,0.766,1.967,1.012,2.819
			c2.497,3.115,2.376-1.342,2.083-2.622c1.16-0.027,1.07,1.865,2.004,1.363c0.406-0.227,0.804-0.424,1.006-0.71l-0.835-0.653
			c-0.237-2.195,1.572,0.445,2.101-1.21c-0.144-0.273-0.216-0.416-0.415-0.492c-0.75-0.511-0.956-0.246-1.363,0.303
			c-0.786-1.922,2.439-1.95,2.156-2.98c-0.68-1.353-2.289-0.058-3.019-0.267c1.856-0.424,2.461-3.283,2.414-5.42
			c-0.634-1.157-0.378-2.492-0.313-3.861c0.029,0.01,0.059,0.017,0.059,0.017l0.208-0.821l-0.246,0.045
			c-0.021-0.36-0.123-0.721-0.21-1.076c0.712,0.328,1.383,0.662,1.818-0.419c0.075,0.123-0.047,0.209,0.039,0.331l0.908-0.227
			c0.094-0.416,0.318-0.899,0.217-1.361c0.197,0.045,0.435-0.445,0.719-0.256c0.737,0.083-0.011,0.878,0.217,1.278
			c1.909-0.301,4.077-0.135,5.68,1.077c-0.239,1.477,1.797,1.553,2.648,1.655c1.399,1.619,3.918-0.727,4.902,0.814
			c-0.968,0.767-2.018-0.558-2.375,0.436l0.227,0.549c0.699,0.511,1.742,1.496,2.45,0.511c-0.275-0.683-0.179-1.228-0.218-1.687
			c0.406-0.187,0.567-0.585,1.029-0.632c0.672,0.038,1.297,0.445,1.108,1.166c-0.405,0.17-0.708-0.19-1.032-0.218
			c-0.32,0.785,0.768,1.145,1.063,1.505c-0.172-2.045,1.806-2.358,0.321-4.04l1.088-0.105
			C88.934,70.917,84.857,69.924,87.089,68.533z"/>
		<path fill="#FFFFFF" d="M74.173,74.04c-0.239,0.814,0.481,1.259,0.679,1.666l0.383-0.218c0.896-0.159,1.095-1.098,0.623-1.693
			C75.546,74.478,74.636,74.296,74.173,74.04z"/>
		<path fill="#FFFFFF" d="M91.055,71.749c-0.983-0.433-1.174-1.359-2.358-1.389l-0.197,1.552c0.888,0.926,1.676,2.26,2.925,2.594
			C92.738,73.236,90.24,73.027,91.055,71.749z"/>
		<path fill="#FFFFFF" d="M91.592,66.384c-0.956,0.142-1.552,0.379-2.696,0.473c-0.965,0.533,0.197,1.242,0.663,1.543
			c2.356-0.85,3.936,1.998,6.331,0.352C96.57,65.127,92.5,67.825,91.592,66.384z"/>
		<path fill="#FFFFFF" d="M96.36,69.574c-0.206-0.105-1.011,0.443-0.511,0.946c0.192,0.095,0.511,0.021,0.674-0.021
			C96.788,70.282,96.475,69.878,96.36,69.574z"/>
	</g>
	<g>
		<path fill="#FFFFFF" d="M114.392,89.33c0.016-0.509,0.047-1.282,0.081-2.218c0.023-0.468,0.044-0.977,0.068-1.508
			c0.005-0.535-0.016-1.093-0.029-1.664c-0.039-2.288-0.425-4.767-1.166-6.464c-0.498-3.669-1.72-6.23-2.826-8.556
			c-1.156-2.354-2.213-4.61-3.633-7.389c-1.59-3.406-3.084-5.83-2.392-6.743l0.206,0.647c0,0,0.132-0.396,0.264-0.793
			c0.133-0.4,0.253-0.809,0.253-0.809l-0.721,0.026c-0.19-1.117-0.815-2.513-1.546-3.669c-0.705-1.16-1.334-2.318-1.565-3.326
			c0,0-0.253-0.237-0.634-0.596c-0.387-0.357-0.889-0.83-1.37-1.309c-0.987-0.967-1.972-1.931-1.972-1.931
			c0.812,1.041,1.502,2.305,2.247,3.553l0.081-0.22c0.4,0.568,1.084,1.543,1.784,2.539c0.67,1.015,1.397,2.031,1.626,2.816
			c0,0-0.271-0.402-0.575-0.778c-0.316-0.371-0.634-0.741-0.634-0.741c1.095,1.908-0.215,0.537-0.65,0.08
			c-2.186-3.846-2.109-2.442-4.08-5.266c-0.34-0.694-1.063-1.967-0.592-1.605c-0.49-0.713-1.229-1.931-1.97-3.087
			c0.005-0.004,0.013-0.009,0.018-0.012c0,0.031,0.054,0.067,0.074,0.093c0.061-0.192-0.206-0.388-0.185-0.453l0.001,0.187
			c-0.28-0.421-0.377-1.037-0.767-1.393l-0.064,0.065c-0.282-0.278-0.027-0.306-0.249-0.648l0.024,0.006
			c-0.107-0.042-0.188-0.125-0.222-0.229c0.13,0.055,0.101-0.25,0.251-0.17c-0.307-0.3-0.195-0.129-0.584-0.248l0.104-0.11
			c-0.151-0.033-0.215-0.014-0.326-0.184c0.173,0.104,0.143-0.201,0.36-0.093c0.111-0.506-0.526-0.452-0.201-0.805
			c-0.428-0.023-0.048,0.418-0.166,0.352c-0.078,0.132-0.325-0.031-0.343-0.168c-0.047-0.125,0.354-0.403,0.213-0.711
			c0.013,0.031,0.04,0.021,0.051,0.053c0.038-0.155-0.22-0.174-0.139-0.38c-0.246,0.014-0.069-0.189-0.349-0.093l0.188,0.255
			c-0.141-0.13-0.523-0.139-0.488-0.47c0.063-0.004,0.168,0.042,0.233,0.079c0.045-0.113-0.119-0.126-0.074-0.242
			c0.278-0.098,0.213,0.318,0.495,0.398c0.078-0.134-0.341-0.239-0.01-0.283c-0.427,0.042-0.092-0.325-0.467-0.407l0.167-0.059
			c-0.04-0.022-0.147-0.056-0.17-0.119l0.256,0.017c-0.253-0.089,0.011-0.397-0.162-0.516c0.161,0.336-0.158,0.165-0.21,0.361
			c-0.405-0.319,0.311-0.431,0.018-0.865c0.052,0.054,0.014,0.282-0.105,0.217c-0.009-0.105-0.002-0.25,0.057-0.344
			c-0.177-0.295-0.144,0.124-0.303,0.037c0.146-0.196-0.148-0.115-0.273-0.222l0.162-0.077c-0.063-0.401-0.383,0.065-0.406-0.31
			l0.289,0.027l-0.137-0.138l0.201-0.052c-0.223-0.115-0.214-0.188-0.244-0.389c-0.096,0.095-0.306,0.117-0.385-0.037
			c0.047-0.152,0.184-0.014,0.055-0.222c0.125,0,0.277-0.005,0.174,0.162c0.059-0.016,0.125,0.001,0.182-0.014
			c0.057-0.167-0.111-0.3-0.148-0.379c0.008,0.034,0.016,0.075,0.001,0.105l-0.377-0.211c0.036-0.08,0.104-0.063,0.171-0.047
			c-0.048-0.056-0.146-0.065-0.206-0.153c0.144-0.038,0.277-0.11,0.405-0.005l-0.294-0.234c0.047-0.047,0.079-0.232,0.147-0.216
			c-0.006-0.206-0.454-0.289-0.465-0.562c-0.029,0.001-0.065-0.009-0.109-0.047c-0.074-0.224-0.006-0.489-0.31-0.646l0.163-0.258
			c-0.15-0.167-0.199,0.338-0.449,0.06c-0.188-0.19,0.156-0.186,0.181-0.299c-0.175-0.054-0.517-0.126-0.435-0.433
			c0.08,0.047,0.072,0.119,0.123,0.174l0.047-0.225c0.312,0.083,0.312,0.26,0.415,0.017c-0.46,0.208-0.368-0.597-0.827-0.385
			l0.039-0.154c0.013,0.033,0.042,0.023,0.053,0.056c0.107-0.316-0.4,0.018-0.477-0.276c-0.014-0.108,0.018-0.206,0.103-0.172
			l-0.219-0.144c-0.022-0.063,0.063-0.09,0.085-0.027l-0.201-0.289l0.015-0.005c-0.094-0.007-0.255-0.047-0.326-0.071
			c0.021-0.113,0.067,0.013,0.112-0.037l-0.199-0.112c0.077-0.132,0.266-0.051,0.313,0.075c0.356-0.399-0.188-0.082-0.116-0.565
			l0.144,0.13c0.197-0.242,0.035-0.316,0.09-0.584c-0.057,0.088-0.191,0.58-0.404,0.457c0.005-0.07-0.018-0.147-0.163-0.198
			c0.157-0.087,0.065-0.163-0.013-0.278l0.212-0.108c-0.132-0.097-0.232-0.028-0.369-0.053c-0.061-0.158,0.083-0.278,0.199-0.389
			c-0.099-0.254-0.166,0.306-0.362,0.052c-0.027-0.241-0.193-0.327-0.45-0.486c-0.009-0.176,0.141-0.05,0.17-0.131l-0.233-0.025
			c-0.013-0.031,0.043-0.051,0.07-0.061c-0.121-0.064-0.209,0.111-0.356-0.014c-0.251,0.09,0.141-0.52-0.23-0.563
			c0.03-0.082,0.141-0.051,0.21-0.113c-0.329-0.167-0.26-0.156-0.618-0.237l0.021-0.266c-0.069,0.229-0.355,0.165-0.596,0.104
			c-0.043,0.094-0.083,0.173-0.097,0.22l-0.257-0.174c0.016-0.049,0.101-0.068,0.21-0.081c-0.028-0.007-0.054-0.011-0.076-0.014
			c0.022-0.133,0.166-0.16,0.317-0.169c-0.025,0.055-0.049,0.11-0.073,0.165c0.161-0.016,0.331-0.044,0.441-0.129
			c-0.032-0.001-0.071-0.019-0.103-0.046c0.042-0.005,0.078-0.013,0.094-0.033c0.018-0.022-0.043-0.019-0.119-0.027l0.192-0.195
			l-0.099,0.042l-0.054-0.405c-0.371-0.085-0.828-0.068-1.146-0.363c0.219-0.017,0.279-0.153,0.475-0.274
			c-0.144,0.23,0.264,0.222,0.342,0.433c-0.04-0.11,0.065-0.148,0.114-0.144l-0.398-0.211c0.163-0.095,0.073-0.146,0.083-0.275
			c-0.271,0.268-0.363-0.113-0.549-0.18c0.099-0.077,0.229-0.118,0.309,0.063c0.117-0.335-0.52,0.011-0.438-0.296
			c0.029,0.037,0.027,0.069,0.092,0.049c-0.154-0.029-0.233-0.303-0.107-0.312l0.029,0.038c-0.14-0.286-0.536-0.799-0.826-0.652
			c0.031-0.026,0.336-0.186,0.4-0.206l-1.194,0.161c0.249-0.118,0.662-0.651,0.941-0.527c-0.014-0.084-0.031-0.187-0.201-0.26
			c-0.002,0.065-0.246,0.334-0.305,0.292c0.132-0.334,0.053-0.204,0.121-0.549c-0.001,0.097-0.393,0.28-0.453,0.174
			c0.063-0.023,0.33-0.259,0.393-0.249l-0.518,0.009c0.105,0.015,0.291-0.202,0.343-0.327c-0.045,0.074-0.153-0.215-0.235-0.254
			l0.002,0.162c-0.161-0.313-0.672,0.091-0.857-0.189c0.092-0.021,0.479-0.249,0.414-0.419c-0.22,0.07-1.027,0.374-1.339,0.257
			l0.06-0.122l-0.25-0.083c0.334-0.103,1.11-0.228,1.458-0.22c-0.007-0.16,0.091-0.118-0.043-0.261
			c0.047-0.125,0.202-0.028,0.246,0.012l-0.234-0.398c-0.18,0.175-0.412-0.106-0.561,0.042l0.513,0.212
			c-0.182,0.172-0.728,0.234-0.893-0.035c0.024-0.127,0.376-0.243,0.437-0.301c-0.091,0.022-0.32-0.125-0.296-0.186l0.192,0.014
			c-0.049-0.196-0.443,0-0.409-0.316c-0.036-0.065,0.092-0.38-0.025-0.29c-0.132,0.282-0.772,0.887-0.982,0.974
			c-0.001-0.03-0.048-0.46-0.001-0.618c0.083-0.242,0.509-0.23,0.581-0.437c-0.052,0.043-0.158,0.051-0.197,0.048
			c-0.01-0.096,0.179-0.122,0.039-0.223c-0.203,0.154-0.226-0.258-0.212,0.091c-0.166-0.066-0.085-0.16-0.229-0.29
			c-0.074,0.159-0.518,0.271-0.679,0.21c0.052-0.039,0.085-0.125,0.099-0.165c-0.173-0.208-0.253-0.377-0.398-0.549
			c0.013-0.001,0.021-0.001,0.033-0.004c0.048-0.015,0.067-0.011,0.164-0.065c0.054-0.028,0.122-0.097,0.138-0.118l0.008-0.012
			l0.004-0.004c0.016-0.028,0.054-0.092,0.049-0.086c0.043-0.097,0.059-0.196,0.057-0.292c-0.011-0.191-0.083-0.346-0.197-0.473
			l-1.623-0.957L77.7,13.702l-0.654-0.541l-1.373-1.138c-1.684-1.511-3.496-3.271-4.49-5.237l0.363,0.076l-0.576-0.86l-0.533-0.925
			l-1.072-1.881c-0.405-0.641-0.866-1.268-1.53-1.726l-0.248-0.152c-0.128-0.072-0.227-0.1-0.327-0.127
			c-0.197-0.049-0.378-0.071-0.554-0.087c-0.177-0.014-0.349-0.021-0.52-0.019c-0.152,0.011-0.322-0.007-0.468,0.041
			c0.017-0.003,0.034-0.007,0.056-0.005c0.115-0.003,0.275,0.009,0.417,0.024c0.255,0.03,0.507,0.08,0.507,0.08
			c-0.235,0.009-0.556-0.007-0.969,0.049c-0.34,0.244-0.622,0.502-0.939,0.787c-0.184,0.151-0.346,0.312-0.502,0.477
			c-0.047,0.048-0.09,0.099-0.137,0.148c-0.016,0.015-0.029,0.031-0.045,0.047c-0.096,0.1-0.19,0.197-0.279,0.299
			c-0.256,0.35-0.498,0.684-0.724,0.963l0.028-0.157c1.143-1.6-0.1,0.094,0.222-0.665l0.178-0.301l-0.148,0.141l-0.177,0.299
			c-0.011-0.057-0.071-0.063,0.112-0.337l-0.28,0.363c-0.738,0.659-0.875,0.553-0.973,0.32c-0.132,0.22,0.2,0.144-0.517,0.958
			l0.029-0.155l-0.625,1.019l-0.399,0.365c-0.224,0.364-0.352,0.611-0.643,0.938l0.034,0.196c-1.243,1.507-2.603,3.575-3.884,5.082
			c-0.154,0.435-0.943,1.167-1.522,2.115l0.367-0.249c-0.002,0.013-0.012,0.035-0.056,0.087c-0.484,0.464-0.22,0.243-0.507,0.614
			c0.095-0.104,0.209-0.238,0.271-0.278c0,0-0.144,0.167-0.291,0.333l-0.099,0.113l-0.019,0.021l-0.009,0.009l0.005-0.004
			l0.159,0.18c0.038,0.066,0.087,0.109,0.129,0.145l0.005-0.006l0.021-0.017c0.024-0.018,0.051-0.038,0.078-0.058l0.168-0.234
			c0.021-0.104-0.52,0.5-0.256,0.146l0.107-0.093c0.133-0.166,0.316-0.377,0.396-0.518c0.197-0.108,0.375-0.483,0.467-0.446
			c0.045-0.042,0.092-0.094,0.139-0.139c-0.034,0.042-0.074,0.094-0.107,0.135c-0.59,0.805-0.928,1.266-0.945,1.292
			c-0.004-0.001-0.007-0.004-0.007-0.006c-0.002,0.005,0,0.008,0,0.012v0.004c-0.013,0.013-0.011,0.031,0.002,0.042
			c0.012,0.011,0.029,0.009,0.04-0.001l0.008-0.01c0.014-0.004,0.026-0.006,0.04-0.01l-0.038,0.009
			c0.007-0.008,0.052-0.058,0.118-0.139l-0.06,0.124l0.073-0.076c0.027-0.018,0.011,0.024-0.014,0.075c0.01,0,0.019,0,0.029,0
			c0.016-0.058,0.063-0.152,0.144-0.275c0.056-0.078,0.112-0.158,0.166-0.238c0.163-0.188,0.35-0.403,0.589-0.677
			c0.701-0.747,1.706-1.815,2.909-3.095c0.582-0.661,1.288-1.313,1.998-2.04c0.707-0.73,1.519-1.451,2.333-2.225
			c0.036-0.037,0.077-0.076,0.116-0.115l0.008-0.003L63.03,6.55c0.173-0.166,0.35-0.335,0.528-0.509
			c0.047-0.014,0.078-0.018,0.094-0.009c0.389-0.33,0.771-0.621,1.16-0.916c0.189-0.147,0.389-0.3,0.585-0.451
			c0.2-0.163,0.383-0.284,0.502-0.344c0.078-0.082,0.171-0.169,0.28-0.242c0.125-0.111,0.241,0.053,0.317,0.155
			c0.133,0.168,0.399,0.681,0.661,1.196l0.052-0.053c0.364,0.579,0.734,1.169,1.131,1.792c1.252,1.83,2.844,3.58,4.723,5.147
			c-0.063,0.029-0.042,0.126,0.104,0.208c-0.016-0.055-0.036-0.106-0.021-0.139c0.074,0.062,0.15,0.123,0.227,0.185
			c-0.014,0.007-0.035,0.019-0.065,0.043c0.057-0.057-0.013-0.013-0.098-0.006l0.17,0.023c0.004-0.016,0.009-0.031,0.013-0.044
			c0.209,0.168,0.422,0.335,0.639,0.5c-0.052-0.022-0.083-0.002-0.105,0.037l0.17,0.011c0.2,0.151,0.404,0.301,0.611,0.449
			c-0.023-0.006-0.047-0.014-0.07-0.015c0,0.015-0.003,0.034-0.008,0.049c0.034,0.002,0.068-0.007,0.104-0.017
			c0.045,0.033,0.094,0.065,0.139,0.097c-0.035,0.031-0.066,0.067-0.006,0.106c0.098-0.015,0.162,0.025,0.236,0.065
			c-0.006-0.008-0.014-0.016-0.021-0.025c0.026,0.017,0.051,0.036,0.076,0.053c-0.019-0.008-0.037-0.018-0.055-0.028
			c0.032,0.049,0.063,0.1,0.084,0.153V14.01h-0.001l0.001-0.002c0.002-0.024,0.006-0.036,0.011-0.018
			c0.002-0.001,0.005,0,0.007,0.001c0.013-0.015,0.026-0.024,0.038-0.034c0.007,0.004,0.013,0.008,0.018,0.012
			c0.024,0.048-0.026,0.022-0.056,0.022l-0.018,0.017v0.002l0.302,0.111c-0.002-0.002-0.003-0.003-0.003-0.003
			c0.001,0.001,0.005,0.003,0.007,0.006l-0.004-0.002c0.044,0.065,0.052,0.143,0.063,0.293c0.128,0.005,0.179-0.026,0.215-0.061
			l-0.246-0.206l0.011,0c0.084,0.056,0.171,0.111,0.256,0.167c0,0.006-0.002,0.012-0.004,0.018c0.004-0.004,0.01-0.008,0.013-0.013
			c0.208,0.134,0.417,0.265,0.63,0.394c-0.078-0.012-0.144-0.041-0.187-0.104c-0.061,0.235,0.052,0.006,0.011,0.301
			c0.09-0.319,0.368,0.246,0.434-0.039c0.002,0.001,0.002,0.001,0.004,0.002c-0.036,0.271,0.13,0.22,0.128,0.523
			c0.038-0.064,0.03-0.156,0.143-0.029c0.019-0.014,0.048-0.026,0.069-0.032c0.002,0.004,0.002,0.006,0.003,0.011l-0.001-0.012
			c0.012-0.005,0.016-0.007,0-0.005c-0.013-0.049-0.016-0.1-0.002-0.141c0.052-0.028,0.107-0.031,0.162-0.025
			c0.094,0.053,0.186,0.106,0.281,0.159c-0.016,0.011-0.029,0.027-0.031,0.054l0.097-0.016c0.022,0.012,0.045,0.024,0.067,0.037
			c-0.038,0.141,0.043,0.319-0.175,0.269l0.165,0.128c0.046,0.148,0.157,0.276,0.27,0.278c0.051,0.084,0.293-0.006,0.15,0.049
			l0.304,0.104l-0.024,0.035c0.225,0.19,0.661,0.187,0.721,0.645c0.104,0.038,0.218,0.07,0.313,0.22l-0.074,0.126
			c0.13,0.054,0.179,0.384,0.324,0.315c-0.179,0.379,0.393,0.503,0.495,0.73l0.146-0.122c0.101,0.127,0.242,0.206,0.433,0.306
			l0.116-0.12c0.218,0.041,0.217,0.407,0.4,0.612c-0.061,0.026-0.092-0.038-0.094-0.102c-0.08,0.496,0.654,0.363,0.634,0.768
			c0.095,0.019,0.112,0.075,0.11,0.144c-0.003-0.006-0.01-0.008-0.018-0.009c0.004,0.007,0.01,0.017,0.018,0.025
			c-0.003,0.044-0.008,0.092-0.007,0.138c0.013-0.049,0.021-0.094,0.018-0.125c0.038,0.044,0.107,0.101,0.192,0.143l-0.119,0.14
			c0.006,0.003,0.01,0.009,0.017,0.012c-0.002,0.107,0.107,0.002,0.186-0.116c0.05,0.017,0.103,0.026,0.155,0.024
			c-0.187,0.231,0.215,0.121,0.026,0.382c0.155-0.044,0.356,0.273,0.634,0.126c-0.029,0.026-0.031,0.059-0.061,0.022
			c0.027,0.1,0.056,0.199,0.178,0.218l-0.16,0.167l0.37-0.008c-0.036,0.186-0.071,0.276-0.287,0.274
			c0.396,0.094,0.227,0.144,0.597,0.203l-0.128,0.074c0.062,0.071,0.309,0.083,0.239,0.199c-0.117,0.334,0.556,0.876,0.623,1.476
			c0.309-0.324-0.027,0.314,0.268,0.151c-0.07,0.081-0.078,0.175-0.199,0.151c0.231,0.176,0.083,0.432,0.424,0.44
			c-0.069,0.082-0.159,0.03-0.195,0.086c0.031,0.007,0.123,0.026,0.084,0.082c-0.034,0.056-0.093,0.012-0.153,0
			c0.162,0.226,0.442,0.086,0.708-0.053c-0.045,0.196,0.007,0.246,0.227,0.232c-0.057,0.094-0.101,0.217-0.222,0.087
			c0.04,0.091,0.19,0.584,0.4,0.471c-0.036,0.058,0.056,0.126,0.093,0.135c0.103,0.195,0.092,0.224,0.223,0.399l0.001-0.071
			c0.291-0.072,0.146,0.123,0.264,0.257l-0.028,0.01c0.023,0.45,0.174,0.101,0.168,0.56l0.146-0.106
			c0.351-0.159-0.021,0.416,0.216,0.544l0.049-0.122c0.175,0.045-0.284,0.562-0.265,0.694c-0.016,0.04-0.068-0.012-0.107-0.033
			c-0.039,0.396,0.225-0.077,0.391,0.111c-0.088,0.101-0.309,0.104-0.249,0.259c-0.049,0.12,0.592,0.221,0.484,0.536
			c0.063-0.09,0.123-0.18,0.243-0.114c0.113,0.138-0.101,0.59,0.244,0.584c-0.013,0.032-0.031,0.051-0.053,0.063
			c0.134,0.081,0.322,0.321,0.504,0.316c-0.488,0.395,0.649,0.601,0.145,0.859l0.216,0.352l-0.056,0.016
			c0.084,0.252,0.246,0.274,0.411,0.294c-0.007,0.072-0.075,0.056-0.104,0.065c0.071,0.395,0.109,0.417,0.508,0.58l-0.15,0.113
			c0.137,0.029-0.013,0.625,0.344,0.869c-0.021,0.006-0.055,0.014-0.093-0.001c0.384,0.287-0.02,1.133,0.652,0.985l0.269,0.184
			c-0.107-0.352,0.287-0.076,0.324-0.259c0.097,0.112-0.024,0.421-0.13,0.277l0.017-0.04c-0.343,0.092,0.082,0.46-0.139,0.553
			c0.315,0.64,0.432,1.351,0.689,1.967l0.215-0.182l0.083,0.219c-0.032,0.081-0.161,0.162-0.218,0.005
			c-0.105,0.143,0.232,0.202,0.287,0.182c0.033,0.342-0.341,0.013-0.309,0.107l0.076,0.115l0.016-0.041
			c0.147,0.055,0.259,0.016,0.326,0.204c0.002,0.138-0.127,0.127-0.116,0.178c-0.019,0.008-0.021,0.026,0.022,0.073l0.098,0.278
			l0.15-0.194c0.146,0.077,0.099,0.257,0.268,0.035c-0.155,0.199-0.016,0.537,0.113,0.813c-0.435,1.229-0.23,3.368,0.305,5.943
			c1.335,1.811,2.636,3.445,3.85,4.76c0.521,0.981,1.049,1.884,1.579,2.724c0.263,0.419,0.529,0.822,0.796,1.216
			c0.139,0.192,0.271,0.386,0.404,0.575l0.2,0.284l0.101,0.139l0.056,0.092c0.614,0.866,1.202,2.215,1.888,3.872
			c0.164,0.4,0.359,0.845,0.567,1.299c0.184,0.438,0.438,0.928,0.689,1.408c0.222,0.471,0.585,0.99,0.894,1.486
			c0.235,0.365,0.471,0.734,0.713,1.113c0.94,1.366,1.688,3.075,2.307,5.221c0.662,1.934,1.276,3.727,1.865,5.444
			c0.58,1.638,1.048,3.236,1.453,4.842c0.789,3.208,1.221,6.479,1.077,10.208c0.573,0.596,0.758,1.822,0.82,3.403
			c-0.017,0.79-0.079,1.667-0.168,2.594c-0.132,0.925-0.323,1.898-0.507,2.894c-0.257,0.979-0.502,1.983-0.781,2.968
			c-0.342,0.966-0.6,1.948-0.938,2.859c-0.358,0.904-0.611,1.804-0.918,2.609c-0.305,0.809-0.536,1.569-0.681,2.272
			c-0.414,0.836-0.742,1.602-0.979,2.244c-0.233,0.644-0.46,1.119-0.512,1.456c-0.129,0.662,0.229,0.649,1.241-0.488
			c-0.769,1.114-1.317,1.867-1.805,2.385c-0.509,0.499-0.894,0.803-1.248,1.092c-0.705,0.584-1.301,1.086-2.835,2.747
			c0,0,0.158-0.371,0.312-0.745c0.139-0.384,0.274-0.766,0.274-0.766c-1.155,0.936-2.624,1.72-4.047,2.953
			c0,0-0.073,0.123-0.203,0.281c-0.128,0.159-0.298,0.377-0.468,0.592c-0.348,0.44-0.697,0.878-0.697,0.878
			c-2.497,1.057-4.282,1.903-6.267,2.592c-0.506,0.125-1.014,0.248-1.535,0.374c-0.507,0.152-1.152,0.154-1.757,0.222
			c-1.249,0.08-2.579,0.215-4.13,0.05c4.029,0.499-1.838,0.396-1.401,0.932c-0.94-0.248-4.698-0.481-3.404-0.651
			c-2.63-0.186-5.2,0.022-7.465,0.133c-2.262,0.149-4.229,0.211-5.729-0.281l-1.932,0.286c-3.302,0.35-5.906-0.305-8.816-0.848
			l-0.472,0.315c-0.499-0.026-1.093-0.097-1.735-0.187c-0.639-0.102-1.313-0.261-1.977-0.422c-0.655-0.201-1.299-0.402-1.86-0.629
			c-0.554-0.248-1.041-0.488-1.404-0.706c-0.578-0.258-1.173-0.521-1.784-0.795c-0.583-0.315-1.215-0.577-1.814-0.916
			c-1.201-0.645-2.443-1.438-3.711-2.186c-2.479-1.555-5.028-3.127-7.094-4.849c-0.914-0.952-1.422-1.624-1.893-2.014
			c-0.449-0.41-0.792-0.596-1.115-0.777c-0.32-0.187-0.648-0.354-1.098-0.702c-0.228-0.173-0.485-0.393-0.787-0.687
			c-0.314-0.281-0.647-0.657-0.999-1.157c-0.353-0.689-0.91-1.42-1.357-2.277c-0.437-0.85-0.979-1.761-1.373-2.604
			c-0.798-1.688-1.51-3.271-1.602-4.199c0.851,1.874,1.602,2.828,2.315,3.827c0.344,0.502,0.755,1.002,1.149,1.624
			c0.396,0.624,0.781,1.377,1.368,2.3c-0.15-0.391,0.052-0.213,0.408,0.213c0.358,0.43,0.853,1.119,1.415,1.68
			c1.079,1.157,1.976,2.056,0.992,0.405c-0.365-0.374-0.734-0.755-1.106-1.14c-0.355-0.398-0.66-0.839-0.992-1.269
			c-0.316-0.441-0.674-0.871-0.956-1.34c-0.269-0.481-0.538-0.964-0.811-1.451c-1.056-1.972-1.96-4.109-2.885-6.182
			c-1.814-4.182-3.389-8.322-4.592-11.957c0.292,0.094,0.377-0.448,0.332-1.342c-0.021-0.897-0.142-2.161-0.058-3.524
			c0.214-2.741,0.871-5.993,1.283-7.59l0.34-0.131c1.015-2.62,1.736-4.747,2.511-9.176c0.601-2.624,1.753-5.051,2.871-7.427
			c1.12-2.352,2.304-4.568,3.661-6.462c0.968-1.411,1.916-2.897,2.838-4.371c0.466-0.721,0.926-1.437,1.383-2.137
			c0.162,0.038,0.331,0.076,0.459,0.179c-0.166-0.31,0.622-0.066,0.402-0.538c0.092-0.005,0.065,0.105,0.15,0.128
			c-0.086-0.141-0.067-0.223,0.072-0.303l0.021,0.035c0.208-0.356,0.433-0.412,0.781-0.729l-0.163-0.075
			c0.076-0.066,0.134-0.052,0.195-0.064c-0.152-0.248-0.173,0.218-0.353-0.036c0.367,0.1,0.408-0.566,0.793-0.403
			c0.09-0.123-0.192-0.083-0.101-0.205l0.11,0.031l-0.092-0.113c0.078-0.068,0.219-0.028,0.297,0.022
			c-0.023,0.013-0.018,0.071-0.028,0.097c0.182-0.03,0.177-0.323,0.237-0.335l-0.141,0.08c0.158-0.398,0.57-0.728,0.622-1.184
			l-0.085-0.024c0.054-0.338,0.217-0.146,0.355-0.461l0.008,0.021c-0.027-0.103-0.008-0.201,0.053-0.27
			c0.029,0.125,0.247-0.019,0.27,0.134c0.06-0.367-0.01-0.209-0.133-0.568l0.142,0.039c-0.057-0.134-0.107-0.177-0.038-0.334
			c0.016,0.181,0.234,0.035,0.271,0.251c0.45-0.111,0.057-0.603,0.511-0.476c-0.215-0.355-0.35,0.123-0.363,0.002
			c-0.146-0.011-0.154-0.276-0.06-0.344c0.075-0.085,0.509,0.13,0.669-0.104c-0.018,0.021,0.005,0.04-0.013,0.061
			c0.141-0.028,0.015-0.245,0.219-0.259c-0.144-0.194,0.108-0.129-0.116-0.318l-0.098,0.251c0.025-0.165-0.174-0.478,0.103-0.577
			c0.038,0.049,0.058,0.153,0.065,0.219c0.111-0.007,0.033-0.145,0.147-0.152c0.228,0.189-0.132,0.294-0.043,0.554
			c0.147,0.011,0.002-0.367,0.215-0.117c-0.262-0.33,0.206-0.196,0.065-0.533l0.137,0.113c-0.005-0.041-0.036-0.14,0-0.184
			l0.127,0.216c-0.068-0.24,0.313-0.144,0.313-0.326c-0.177,0.256-0.214-0.068-0.394-0.036c0.033-0.45,0.502,0.09,0.686-0.31
			c-0.014,0.063-0.213,0.116-0.227-0.006c0.078-0.045,0.197-0.093,0.301-0.08c0.138-0.253-0.173-0.07-0.189-0.232
			c0.231,0.047,0.012-0.166,0.031-0.307l0.145,0.104c0.284-0.197-0.252-0.289,0.031-0.445l0.13,0.246l0.036-0.161l0.147,0.146
			c-0.025-0.223,0.038-0.242,0.179-0.341c-0.123-0.043-0.25-0.208-0.17-0.328c0.144-0.016,0.105,0.145,0.205-0.035
			c0.063,0.103,0.148,0.227-0.039,0.201c0.044,0.042,0.066,0.104,0.105,0.145c0.162-0.013,0.179-0.198,0.223-0.259
			c-0.023,0.019-0.051,0.041-0.082,0.04l-0.027-0.386c0.083,0.002,0.105,0.064,0.126,0.125c0.02-0.06-0.022-0.142,0.018-0.223
			c0.104,0.105,0.229,0.189,0.211,0.33l0.035-0.324c0.062,0.021,0.225-0.015,0.247,0.047c0.161-0.077-0.003-0.478,0.21-0.58
			c-0.016-0.024-0.026-0.058-0.016-0.105c0.14-0.139,0.388-0.173,0.362-0.477l0.289,0.048c0.057-0.181-0.371-0.051-0.273-0.352
			c0.059-0.221,0.227,0.067,0.328,0.049c-0.043-0.163-0.15-0.47,0.137-0.502c0.002,0.082-0.059,0.1-0.079,0.159l0.206-0.034
			c0.085,0.286-0.059,0.342,0.188,0.35c-0.395-0.315,0.302-0.5-0.093-0.814l0.143-0.017c-0.021,0.019,0,0.041-0.021,0.06
			c0.309-0.011-0.211-0.329-0.007-0.487c0.083-0.046,0.177-0.052,0.19,0.031l0.013-0.229c0.039-0.04,0.102,0.023,0.063,0.063
			l0.139-0.259l0.011,0.011c-0.038-0.081-0.082-0.229-0.096-0.298c0.101-0.017,0.021,0.062,0.082,0.084l-0.002-0.203
			c0.144,0.024,0.168,0.207,0.086,0.287c0.496,0.176-0.023-0.184,0.407-0.272l-0.038,0.161c0.289,0.091,0.275-0.068,0.521-0.101
			c-0.099-0.022-0.566,0.012-0.564-0.204c0.061-0.017,0.114-0.059,0.088-0.195c0.146,0.105,0.165,0.005,0.226-0.094l0.187,0.147
			c0.018-0.142-0.084-0.206-0.128-0.329c0.103-0.098,0.267-0.012,0.412,0.054c0.163-0.158-0.329-0.051-0.21-0.29
			c0.184-0.096,0.184-0.259,0.201-0.521c0.143-0.056,0.104,0.104,0.186,0.106L44.204,29.2c0.019-0.02,0.061,0.022,0.081,0.043
			c-0.002-0.122-0.186-0.148-0.146-0.309c-0.188-0.189,0.493-0.024,0.367-0.354c0.081,0.003,0.104,0.105,0.187,0.148
			c-0.005-0.325,0.018-0.264-0.067-0.591l0.233-0.053c-0.222,0.001-0.291-0.262-0.341-0.484c-0.098-0.015-0.182-0.027-0.227-0.026
			l0.039-0.268c0.049,0,0.099,0.067,0.156,0.158c-0.006-0.024-0.012-0.048-0.02-0.068c0.121-0.017,0.205,0.102,0.273,0.229
			c-0.053-0.007-0.11-0.013-0.168-0.019c0.082,0.133,0.178,0.273,0.297,0.346c-0.014-0.029-0.014-0.067-0.006-0.101
			c0.023,0.036,0.045,0.065,0.068,0.073c0.023,0.009-0.004-0.042-0.028-0.11l0.246,0.114l-0.078-0.074l0.319-0.15
			c-0.082-0.338-0.281-0.728-0.156-1.077c0.102,0.187,0.242,0.206,0.424,0.347c-0.252-0.069-0.079,0.281-0.229,0.399
			c0.076-0.063,0.152,0.021,0.17,0.063l0.016-0.395c0.147,0.119,0.156,0.028,0.269,0.007c-0.336-0.17-0.054-0.344-0.065-0.518
			c0.105,0.067,0.189,0.169,0.068,0.281c0.331,0.025-0.213-0.447,0.084-0.445c-0.023,0.034-0.051,0.039-0.009,0.09
			c-0.033-0.141,0.171-0.27,0.227-0.162l-0.021,0.033c0.191-0.186,0.48-0.64,0.252-0.86c0.035,0.021,0.284,0.256,0.326,0.307
			l-0.568-1.014c0.192,0.197,0.804,0.458,0.795,0.725c0.069-0.027,0.152-0.062,0.154-0.224c-0.056,0.011-0.377-0.151-0.361-0.213
			c0.339,0.054,0.195,0.009,0.521,0.007c-0.085,0.015-0.383-0.298-0.31-0.371c0.041,0.051,0.339,0.247,0.354,0.303l-0.183-0.453
			c0.022,0.095,0.277,0.223,0.405,0.249c-0.083-0.027,0.137-0.169,0.144-0.248l-0.142,0.027c0.222-0.188-0.3-0.579-0.112-0.791
			c0.048,0.079,0.374,0.388,0.502,0.306c-0.132-0.182-0.645-0.855-0.625-1.155l0.126,0.036l0.006-0.237
			c0.182,0.289,0.521,0.968,0.621,1.273c0.141-0.027,0.132,0.063,0.219-0.07c0.126,0.024,0.088,0.174,0.063,0.216l0.282-0.251
			c-0.207-0.138-0.027-0.377-0.201-0.492l-0.037,0.477c-0.208-0.138-0.427-0.616-0.229-0.797c0.119,0.007,0.321,0.31,0.393,0.356
			c-0.049-0.08,0.021-0.298,0.085-0.28l0.038,0.17c0.162-0.059-0.118-0.391,0.178-0.385c0.051-0.039,0.365,0.052,0.255-0.046
			c-0.287-0.095-0.999-0.616-1.129-0.798c0.028-0.005,0.412-0.087,0.564-0.056c0.239,0.056,0.333,0.443,0.537,0.492
			c-0.052-0.044-0.087-0.139-0.094-0.175c0.087-0.015,0.152,0.151,0.211,0.022c-0.187-0.174,0.188-0.211-0.13-0.183
			c0.026-0.151,0.13-0.082,0.219-0.215c-0.161-0.06-0.355-0.453-0.329-0.605c0.045,0.046,0.13,0.073,0.17,0.084
			c0.188-0.206,0.368-0.253,0.529-0.458c0.063,0.018,0.199-0.035,0.251,0.075c-0.012-0.057-0.059-0.136-0.014-0.203
			c0.269,0.013-0.083,0.16,0.197,0.229c-0.11-0.098-0.033-0.287-0.034-0.432c-0.201-0.113-0.197,0.179-0.196,0.326
			c-0.247-0.192-0.384-0.551-0.33-0.853c0.072-0.218,0.218,0.051,0.206-0.005c0.292-0.285-0.218-0.609,0.168-0.735
			c0.24,0.018,0.316,0.242,0.448,0.307c-0.05,0.185-0.267,0.133-0.334,0.232l0.166-0.057c0.018,0.084-0.016,0.208-0.101,0.223
			c0.21,0.022,0.448-0.516,0.772-0.658c-0.018-0.086-0.014-0.204-0.104-0.218l-0.04,0.095c-0.182-0.029-0.06-0.285-0.196-0.234
			c-0.006-0.174-0.055-0.403,0.134-0.493l0.199,0.114c-0.056-0.038-0.182,0.011-0.159,0.096c-0.031-0.124,0.417-0.033,0.238-0.286
			l-0.205,0.004c-0.009-0.177-0.091-0.456,0.07-0.54c-0.223-0.082-0.005,0.046-0.283-0.028c0.318,0.125-0.279,0.323,0.093,0.411
			c-0.313-0.096-0.231,0.083-0.533,0.045c0.063,0.043,0.147,0.045,0.033,0.131c0.012,0.019,0.025,0.049,0.032,0.066
			c-0.005,0.002-0.007,0.003-0.01,0.003h0.01c0.006,0.011,0.008,0.014,0.006,0c0.047-0.006,0.094-0.002,0.133,0.015
			c0.092,0.162-0.049,0.333-0.023,0.447c-0.08,0.042-0.049-0.081-0.138-0.095l0.035,0.171c-0.137-0.095-0.354,0-0.31-0.213
			l-0.115,0.134c-0.137,0.022-0.254,0.111-0.252,0.224c-0.08,0.042,0.016,0.279-0.044,0.141l-0.088,0.279l-0.035-0.023
			c-0.184,0.2-0.128,0.607-0.556,0.667c-0.022,0.098-0.04,0.205-0.168,0.297L48.459,20.6c-0.031,0.125-0.329,0.191-0.241,0.323
			c-0.384-0.137-0.414,0.399-0.594,0.521l0.146,0.121c-0.096,0.107-0.137,0.247-0.184,0.432l0.141,0.093
			c0.016,0.204-0.333,0.237-0.465,0.437c-0.041-0.051,0.009-0.089,0.066-0.1c-0.477-0.001-0.147,0.647-0.523,0.688
			c0.009,0.088-0.036,0.114-0.097,0.125c0.003-0.005,0.005-0.011,0.003-0.019c-0.005,0.004-0.012,0.012-0.017,0.02
			c-0.04,0.006-0.085,0.009-0.125,0.018c0.049,0.003,0.09,0.003,0.116-0.006c-0.027,0.042-0.058,0.115-0.067,0.199l-0.161-0.082
			c-0.002,0.006-0.006,0.009-0.007,0.017c-0.098,0.018,0.032,0.098,0.162,0.148c0.002,0.047,0.009,0.097,0.028,0.144
			c-0.267-0.127-0.04,0.214-0.334,0.093c0.09,0.13-0.136,0.365,0.093,0.588c-0.034-0.023-0.062-0.018-0.041-0.051
			c-0.078,0.044-0.156,0.089-0.13,0.201l-0.203-0.108l0.135,0.328c-0.176,0.004-0.268-0.009-0.342-0.201
			c0.055,0.373-0.049,0.232,0.031,0.571L45.738,25c-0.043,0.067,0.036,0.288-0.09,0.253c-0.331-0.024-0.56,0.686-1.043,0.899
			c0.402,0.187-0.282,0.054-0.022,0.27c-0.099-0.04-0.184-0.023-0.211-0.136c-0.06,0.248-0.34,0.185-0.21,0.484
			c-0.099-0.04-0.092-0.13-0.154-0.147c0.008,0.029,0.028,0.114-0.036,0.096c-0.062-0.017-0.048-0.079-0.062-0.135
			c-0.129,0.202,0.108,0.409,0.337,0.6c-0.185,0.014-0.206,0.075-0.101,0.261c-0.104-0.023-0.229-0.028-0.166-0.168
			c-0.063,0.059-0.421,0.326-0.233,0.474c-0.064-0.016-0.083,0.083-0.075,0.118c-0.123,0.142-0.15,0.143-0.24,0.304l0.063-0.019
			c0.187,0.229-0.042,0.162-0.101,0.302l-0.022-0.021c-0.367,0.151-0.007,0.177-0.396,0.307l0.156,0.092
			c0.289,0.253-0.359,0.105-0.357,0.349l0.123,0.003c0.043,0.164-0.596-0.069-0.697-0.012c-0.042,0-0.021-0.061-0.021-0.101
			c-0.35,0.091,0.166,0.167,0.085,0.367c-0.123-0.043-0.227-0.229-0.331-0.13c-0.123-0.004,0.089,0.569-0.22,0.581
			c0.103,0.023,0.206,0.048,0.208,0.169c-0.061,0.14-0.533,0.106-0.365,0.396c-0.033,0-0.059-0.01-0.078-0.023
			c-0.004,0.138-0.111,0.375-0.018,0.529c-0.559-0.279-0.175,0.747-0.632,0.409l-0.18,0.3l-0.044-0.042
			c-0.16,0.159-0.099,0.302-0.034,0.446c-0.061,0.019-0.081-0.043-0.104-0.064c-0.283,0.196-0.283,0.236-0.216,0.624l-0.166-0.085
			c0.043,0.122-0.511,0.211-0.523,0.597c-0.016-0.015-0.041-0.041-0.048-0.076c-0.035,0.418-0.918,0.396-0.454,0.898l-0.003,0.289
			c0.221-0.218,0.207,0.208,0.372,0.171c-0.04,0.12-0.349,0.133-0.29-0.007l0.042,0c-0.251-0.249-0.323,0.236-0.513,0.09
			c-0.341,0.499-0.842,0.865-1.184,1.315l0.259,0.106l-0.13,0.15c-0.081,0.005-0.213-0.066-0.121-0.175
			c-0.157-0.028-0.052,0.227,0.002,0.292c-0.018,0.013-0.033,0.026-0.051,0.039c-0.178,0.052-0.138-0.292-0.188-0.233l-0.05,0.104
			l0.041-0.002c0.023,0.097,0.071,0.163,0.064,0.237c-0.049,0.038-0.099,0.077-0.147,0.116c-0.046-0.016-0.081-0.05-0.102-0.033
			c-0.016-0.011-0.031-0.004-0.045,0.048l-0.165,0.188l0.043,0.009c-2.489,2.042-4.399,4.553-5.932,6.974
			c-2.078,3.226-3.695,6.341-5.86,8.802c1.403-2.561,2.125-3.948,2.679-5.235c0.577-1.28,0.961-2.467,2.02-4.539
			c0,0-0.428,0.461-0.831,0.937c-0.4,0.478-0.802,0.956-0.802,0.956s0.216-0.45,0.43-0.901c0.209-0.454,0.448-0.899,0.448-0.899
			c-0.907,0.68,0.316-1.726-0.179-1.672c0,0-1.075,1.548-2.022,3.129c-0.944,1.583-1.79,3.182-1.79,3.182
			c2.178-3.271,1.311-0.821,1.149,0.329c0,0-0.468,0.795-0.916,1.597c-0.438,0.802-0.88,1.602-0.88,1.602
			c0.542-0.689,1.695-2.624,0.729-0.167c-0.724,1.278-1.33,3.105-2.253,4.445l0.453-2.899c-0.649,2.121-1.664,3.75-2.688,5.391
			c-0.504,0.952-1.037,1.938-1.452,2.966c-0.329,0.983-0.632,2.073-0.749,3.165l-1.168,1.074c0,0-0.059,0.246-0.147,0.617
			c-0.085,0.39-0.211,0.815-0.336,1.261c-0.249,0.896-0.478,1.757-0.504,1.802c0.009-0.016-0.152-0.521-0.157-0.511
			c0.031-0.057-0.414,1.188-0.837,2.402c-0.41,1.24-0.784,2.516-0.784,2.516c-0.54,2.845-0.209,3.342,0.02,3.891
			c-0.145,1.125-0.307,2.128-0.32,3.27c-0.033,1.063,0.021,1.874-0.039,2.369c0,0-0.061-0.163-0.113-0.431
			c-0.06-0.267-0.139-0.623-0.219-0.978c-0.088-0.352-0.137-0.734-0.168-1.025s-0.054-0.485-0.054-0.485s-0.021,0.178-0.052,0.443
			c-0.027,0.265-0.078,0.63-0.078,0.959c-0.016,0.677-0.031,1.354-0.031,1.354c0.063-0.942,0.121-0.343,0.307,0.471
			c0.156,0.836,0.424,1.906,0.585,2.18c0.461,2.703,0.772,3.564,0.897,4.251c0.159,0.663,0.173,1.122,0.498,2.732
			c1.42,3.096,2.451,6.979,3.162,6.911c0.499,1.401,1.043,2.8,1.592,4.173l0.421,1.034l0.561,1.176
			c0.396,0.771,0.724,1.599,1.216,2.3c0.463,0.722,0.927,1.442,1.387,2.158c0.518,0.661,1.034,1.319,1.547,1.97
			c0.498,0.672,1.07,1.24,1.611,1.832c0.553,0.579,1.074,1.188,1.647,1.697l2.286,1.563c2.571,2.523,4.697,4.064,6.905,5.472
			c0.287,0.182,0.53,0.353,0.854,0.543c0.327,0.186,0.66,0.376,0.996,0.568c0.659,0.4,1.378,0.726,2.124,1.074
			c1.498,0.689,3.178,1.301,5.135,1.861l-0.681,0.002c0,0,0.28,0.052,0.696,0.118c0.415,0.068,0.971,0.156,1.525,0.243
			c0.549,0.057,1.1,0.116,1.512,0.157c0.408,0.047,0.681,0.064,0.681,0.064c2.89,0.746,4.94,0.767,7.048,0.796
			c2.108,0.014,4.301-0.017,7.512,0.267c3.463,0.126,5.865,0.019,7.723-0.177c1.85-0.223,3.216-0.563,4.329-0.964
			c1.65-0.149,3.552-0.102,5.409,0.014c1.85,0.128,3.73,0.128,5.268,0.109l-1.996,0.393c0,0,0.651,0.052,1.301,0.111
			c0.658,0.048,1.297,0.116,1.326,0.092c1.256-0.244,2.253-0.341,3.039-0.583c0.791-0.232,1.465-0.428,2.186-0.637
			c0.672-0.277,1.385-0.585,2.276-0.996c0.433-0.218,0.878-0.502,1.396-0.81c0.518-0.31,1.095-0.655,1.675-1.119
			c3.534-2.118,4.49-3.579,5.046-4.545c0.477-1.048,0.553-1.673,1.364-3.081c0,0,0.338-0.315,0.844-0.785
			c0.533-0.454,1.146-1.132,1.756-1.827c0.622-0.681,1.241-1.378,1.63-1.945c0.417-0.558,0.693-0.926,0.693-0.926l-0.254,0.054
			c0.329-1.034,0.488-1.761,0.679-2.393c0.188-0.632,0.435-1.162,0.737-1.863c0.513-1.418,1.654-3.442,2.548-8.296l-0.669,0.345
			C114.967,95.001,114.298,93.477,114.392,89.33z M88.234,26.708c0.057,0.028,0.209,0.063,0.135,0.146
			C88.161,26.901,88.225,26.814,88.234,26.708z M85.868,23.58c-0.04-0.034-0.061-0.084-0.054-0.16
			C85.884,23.421,85.891,23.488,85.868,23.58z M54.724,15.147c-0.016,0.01-0.009-0.008,0.003-0.036
			c0.037-0.04,0.07-0.082,0.118-0.137L54.724,15.147z M58.009,10.397l0.032,0.195c0.014-0.005,0.028-0.02,0.044-0.028
			c-0.217,0.283-0.423,0.548-0.622,0.809c-0.054,0.045-0.107,0.084-0.107,0.068l0.343-0.421l-0.054,0.036
			c-0.511,0.512-1.058,1.058-1.596,1.595c0.829-1.031,1.809-2.366,2.626-3.356l0.02,0.112C58.466,9.746,58.345,10.022,58.009,10.397
			z M60.067,7.978c0.201-0.326,0.37-0.595,0.499-0.726c0.121-0.128,0.204-0.21,0.265-0.261C60.571,7.328,60.318,7.654,60.067,7.978z
			 M77.783,15.802l0.009-0.004C77.844,15.921,77.827,15.875,77.783,15.802z M77.931,15.615c0-0.016,0.002-0.029,0.003-0.044
			c0.118,0.062,0.234,0.124,0.352,0.184C78.141,15.794,78.02,15.827,77.931,15.615z M78.764,16.056
			c-0.097-0.037-0.109-0.079-0.094-0.117l0.096,0.044l0.209,0.094c0.009,0.002,0.018,0.003,0.024,0.006
			C78.92,16.082,78.84,16.074,78.764,16.056z M91.285,36.416l0.023-0.061C91.397,36.43,91.344,36.422,91.285,36.416z M49.734,19.251
			l0.004,0.01C49.624,19.293,49.666,19.283,49.734,19.251z M44.99,27.542c0.029,0.063-0.024,0.085-0.112,0.089
			C44.89,27.59,44.923,27.557,44.99,27.542z M43.32,30.528c0.006,0.057,0.047,0.196-0.057,0.159
			C43.129,30.526,43.229,30.553,43.32,30.528z M37.1,36.484l0.036-0.002c-0.011,0.006-0.018,0.013-0.026,0.019
			C37.105,36.496,37.103,36.49,37.1,36.484z"/>
		<path fill="#FFFFFF" d="M54.486,15.146l-0.004,0.003l-0.001,0.002c0.016,0.019,0.029,0.021,0.043,0.025
			c-0.009-0.009-0.021-0.021-0.034-0.031H54.486z"/>
		<path fill="#FFFFFF" d="M55.091,15.441c-0.011,0.024-0.02,0.052-0.031,0.072c-0.022,0.042-0.004,0.006-0.007,0.014
			c0.039-0.062,0.064-0.102,0.064-0.102C55.106,15.433,55.1,15.433,55.091,15.441z"/>
		<path fill="#FFFFFF" d="M54.782,15.234c-0.011,0-0.017,0-0.027,0c-0.005,0.017-0.02,0.044-0.016,0.052
			C54.75,15.274,54.771,15.248,54.782,15.234z"/>
		<path fill="#FFFFFF" d="M54.666,15.237c0.016-0.003,0.026-0.006,0.031,0.003c0.006,0.019,0.002,0.044-0.007,0.061l0.02-0.035
			c0.009-0.012,0.01-0.021,0.016-0.033c-0.016,0-0.035-0.002-0.049,0L54.666,15.237z"/>
		<path fill="#FFFFFF" d="M54.524,15.177c0.013,0.01,0.021,0.018,0.031,0.028c0-0.007-0.005-0.007-0.004-0.014
			C54.543,15.18,54.533,15.179,54.524,15.177z"/>
		<path fill="#FFFFFF" d="M65.597,1.175c0.001,0.008,0.024-0.01,0.059-0.029C65.637,1.154,65.613,1.16,65.597,1.175z"/>
		<path fill="#FFFFFF" d="M55.131,6.249c0.014,0.009,0.027,0.018,0.027,0.014C55.149,6.255,55.139,6.253,55.131,6.249z"/>
		<path fill="#FFFFFF" d="M35.066,18.234l0.016,0.018c0.016,0.025,0.094,0.103,0.154,0.137c0.107,0.06,0.131,0.054,0.184,0.072
			c0.312,0.055,0.467,0.016,0.663-0.006c0.088-0.016,0.211-0.036,0.318-0.074l0.231-0.11l0.463-0.216
			c4.835-2.474,8.724-6.012,11.316-9.85c0.445-0.712,0.865-1.386,1.274-2.047l0.061,0.062c0.294-0.591,0.597-1.175,0.744-1.365
			c0.091-0.119,0.22-0.304,0.364-0.18c0.117,0.083,0.223,0.185,0.313,0.278c0.136,0.066,0.344,0.206,0.568,0.391
			c0.221,0.176,0.445,0.349,0.658,0.519c0.441,0.337,0.869,0.669,1.311,1.045c0.021-0.01,0.058-0.003,0.105,0.008
			c0.205,0.2,0.4,0.393,0.602,0.583l0.012,0.017l0.009,0.006c0.045,0.043,0.09,0.088,0.13,0.133c0.463,0.439,1.4,1.504,1.846,1.925
			c0.508-0.248,0.589-1.066,1.157-1.235c0.081-0.237,0.178-0.47,0.276-0.705c-0.258-0.313-0.417-0.582-0.637-0.947l-0.449-0.415
			L56.05,5.112l0.031,0.18c-0.807-0.932-0.433-0.846-0.578-1.097c-0.114,0.266-0.271,0.388-1.104-0.365l-0.315-0.412
			c0.205,0.31,0.139,0.316,0.127,0.382l-0.199-0.341l-0.168-0.162l0.201,0.346c0.358,0.866-1.046-1.066,0.249,0.758l0.031,0.18
			c-0.249-0.321-0.526-0.7-0.817-1.099c-0.097-0.117-0.208-0.227-0.313-0.339c-0.016-0.02-0.032-0.039-0.054-0.059
			c-0.049-0.053-0.1-0.11-0.15-0.165c-0.175-0.19-0.358-0.376-0.568-0.545c-0.358-0.323-0.682-0.623-1.064-0.9
			c-0.463-0.063-0.826-0.043-1.091-0.057c0,0,0.285-0.058,0.571-0.088c0.162-0.02,0.34-0.03,0.469-0.029
			c0.063-0.006,0.103,0.013,0.141,0.029c-0.177-0.092-0.401-0.055-0.601-0.069c-0.192-0.003-0.394,0.006-0.584,0.021
			c-0.204,0.02-0.405,0.045-0.63,0.103c-0.114,0.028-0.229,0.063-0.367,0.145l-0.282,0.174c-0.747,0.523-1.27,1.237-1.727,1.971
			l-1.214,2.15l-0.601,1.056l-0.647,0.982l0.406-0.087c-1.122,2.246-3.172,4.255-5.072,5.982l-1.555,1.299l-0.735,0.617
			l-0.833,0.504l-1.834,1.093c-0.127,0.141-0.213,0.32-0.225,0.54c0,0.111,0.021,0.223,0.068,0.333
			C35.008,18.128,35.049,18.199,35.066,18.234z"/>
		<path fill="#FFFFFF" d="M54.346,13.753c0.047-0.031-0.074-0.128-0.088-0.154C54.216,13.692,54.375,13.78,54.346,13.753z"/>
		<polygon fill="#FFFFFF" points="53.978,14.66 53.941,14.604 53.963,14.808 		"/>
		<path fill="#FFFFFF" d="M53.808,14.997l-0.11-0.193c-0.104,0.155-0.156,0.423-0.29,0.472c0.248,0.116,0.163-0.256,0.34-0.301
			L53.808,14.997z"/>
		<path fill="#FFFFFF" d="M52.686,15.234c0.097,0.047,0.005,0.131,0.094-0.058c-0.016,0.001-0.023-0.001-0.033-0.002
			C52.735,15.188,52.72,15.206,52.686,15.234z"/>
		<path fill="#FFFFFF" d="M52.746,15.173C52.798,15.102,52.644,15.159,52.746,15.173L52.746,15.173z"/>
		<path fill="#FFFFFF" d="M52.383,15.363c-0.04,0.123,0.022,0.144,0.144,0.158l0.005-0.148
			C52.471,15.351,52.391,15.421,52.383,15.363z"/>
		<path fill="#FFFFFF" d="M52.601,15.731l0.009-0.071C52.585,15.651,52.566,15.657,52.601,15.731z"/>
		<path fill="#FFFFFF" d="M52.63,15.509l-0.021,0.15c0.045,0.015,0.11,0.07,0.016-0.064C52.679,15.655,52.637,15.587,52.63,15.509z"
			/>
		<path fill="#FFFFFF" d="M52.869,15.579c0.117-0.192-0.045-0.29-0.161-0.097C52.795,15.469,52.876,15.43,52.869,15.579z"/>
		<path fill="#FFFFFF" d="M53.584,15.489l0.114-0.014l-0.017-0.115C53.689,15.417,53.52,15.438,53.584,15.489z"/>
		<path fill="#FFFFFF" d="M52.157,15.982c-0.059,0.008-0.14,0.048-0.208-0.001c0.038,0.042,0.141,0.068,0.201,0.107L52.157,15.982z"
			/>
		<path fill="#FFFFFF" d="M52.15,16.088l-0.009,0.16C52.225,16.169,52.202,16.123,52.15,16.088z"/>
		<polygon fill="#FFFFFF" points="52.793,15.646 52.786,15.971 52.811,15.938 		"/>
		<polygon fill="#FFFFFF" points="51.629,16.352 51.574,16.212 51.645,16.438 		"/>
		<path fill="#FFFFFF" d="M51.442,16.617c-0.049-0.111-0.188-0.06-0.203-0.146c-0.04,0.081-0.016,0.197,0.005,0.303
			C51.255,16.688,51.313,16.637,51.442,16.617z"/>
		<path fill="#FFFFFF" d="M51.244,16.773c-0.003,0.045,0,0.097,0.025,0.165C51.271,16.894,51.259,16.835,51.244,16.773z"/>
		<path fill="#FFFFFF" d="M51.79,16.37l0.154,0.063c0.011-0.011,0.022-0.024,0.034-0.037C51.946,16.382,51.865,16.339,51.79,16.37z"
			/>
		<path fill="#FFFFFF" d="M51.949,16.436l-0.005-0.002c-0.038,0.039-0.063,0.066-0.074,0.078
			C51.88,16.501,51.902,16.479,51.949,16.436z"/>
		<path fill="#FFFFFF" d="M51.986,16.386l-0.008,0.01C51.992,16.402,52,16.404,51.986,16.386z"/>
		<path fill="#FFFFFF" d="M52.484,16.099c0.018,0.114-0.01,0.294,0.19,0.267C52.627,16.255,52.512,16.271,52.484,16.099z"/>
		<path fill="#FFFFFF" d="M52.19,16.285l-0.011,0.182l0.116-0.08C52.263,16.362,52.199,16.34,52.19,16.285z"/>
		<polygon fill="#FFFFFF" points="52.137,16.496 52.175,16.549 52.18,16.467 		"/>
		<path fill="#FFFFFF" d="M51.529,16.853c0.017,0.089-0.02,0.142-0.056,0.205c0.072-0.04,0.135-0.091,0.183-0.15
			C51.626,16.868,51.577,16.785,51.529,16.853z"/>
		<path fill="#FFFFFF" d="M51.743,16.659v0.016C51.759,16.677,51.766,16.675,51.743,16.659z"/>
		<path fill="#FFFFFF" d="M51.025,17.607c0.008,0.003,0.019,0.006,0.029,0.01l-0.021-0.019L51.025,17.607z"/>
		<path fill="#FFFFFF" d="M51.688,16.917c0.06-0.025,0.053-0.077,0.035-0.134c-0.014,0.044-0.036,0.086-0.066,0.125
			C51.671,16.927,51.682,16.936,51.688,16.917z"/>
		<path fill="#FFFFFF" d="M51.199,17.139c0.045-0.002,0.089-0.011,0.132-0.022C51.274,17.107,51.176,17.104,51.199,17.139z"/>
		<path fill="#FFFFFF" d="M51.697,16.662c0-0.003-0.002-0.008,0-0.011C51.658,16.644,51.672,16.652,51.697,16.662z"/>
		<path fill="#FFFFFF" d="M51.697,16.662c-0.002,0.038,0.015,0.082,0.025,0.121c0.014-0.036,0.021-0.071,0.021-0.108
			C51.729,16.673,51.712,16.667,51.697,16.662z"/>
		<path fill="#FFFFFF" d="M51.77,18.109c-0.006-0.169-0.434-0.41-0.715-0.493c0.048,0.043,0.093,0.082,0.076,0.239
			c0.092,0.014,0.332-0.11,0.365,0.061c-0.053,0.185-0.132,0.079-0.246,0.096c0.188,0.059,0.065,0.341,0.301,0.48l0.023-0.178
			c0.034,0.023,0.052,0.109,0.107,0.101C51.574,18.314,51.563,18.111,51.77,18.109z"/>
		<path fill="#FFFFFF" d="M51.226,17.43l0.021-0.055c-0.059,0.032-0.133,0.03-0.275,0.021c-0.001,0.116,0.029,0.165,0.063,0.201
			l0.188-0.197L51.226,17.43z"/>
		<path fill="#FFFFFF" d="M51.402,17.184c0.097,0.135,0.065,0.28,0.251,0.327c0.092-0.131-0.032-0.171-0.026-0.29
			c-0.133,0.226-0.021-0.115-0.209-0.026c0.01-0.058,0.033-0.098,0.056-0.136c-0.046,0.024-0.092,0.044-0.143,0.058l0.013,0.001
			v-0.001l0.002,0.001c0.021,0.004,0.034,0.01,0.017,0.011c0,0.003,0,0.005-0.001,0.007c0.017,0.016,0.029,0.031,0.039,0.047
			c-0.072,0.037-0.039-0.017-0.039-0.047l-0.016-0.019h-0.002l-0.098,0.257C51.299,17.347,51.338,17.29,51.402,17.184z"/>
		<path fill="#FFFFFF" d="M52.848,16.693c-0.016-0.002-0.023-0.01-0.032-0.018C52.818,16.701,52.824,16.713,52.848,16.693z"/>
		<path fill="#FFFFFF" d="M52.815,16.675c-0.009-0.055-0.005-0.172-0.141-0.135l0.005,0.028c-0.086,0.035-0.254,0.025-0.323,0.005
			c0.114,0.061,0.208,0.102,0.35,0.137c-0.005-0.028-0.045-0.082,0.007-0.118C52.786,16.584,52.771,16.644,52.815,16.675z"/>
		<path fill="#FFFFFF" d="M52.112,17.148c0.103-0.075,0.007-0.12-0.033-0.172l-0.076,0.218l0.177,0.002L52.112,17.148z"/>
		<polygon fill="#FFFFFF" points="50.947,17.577 50.834,17.448 50.939,17.694 		"/>
		<polygon fill="#FFFFFF" points="50.784,17.807 50.677,17.707 50.697,17.821 		"/>
		<path fill="#FFFFFF" d="M42.981,31.123l-0.052-0.051C42.95,31.113,42.968,31.137,42.981,31.123z"/>
		<path fill="#FFFFFF" d="M46.569,23.258c-0.165-0.009-0.398-0.056-0.26,0.036l0.147,0.075C46.473,23.3,46.516,23.271,46.569,23.258
			z"/>
		<path fill="#FFFFFF" d="M44.518,27.602c0.018,0.001,0.036,0.004,0.055,0.007c-0.03-0.051-0.061-0.098-0.086-0.142
			C44.496,27.508,44.506,27.554,44.518,27.602z"/>
		<path fill="#FFFFFF" d="M41.371,33.603l0.09,0.156C41.527,33.665,41.43,33.657,41.371,33.603z"/>
		<path fill="#FFFFFF" d="M49.046,20.101c-0.101,0.023-0.159,0.057-0.201,0.096C48.979,20.179,49.136,20.203,49.046,20.101z"/>
		<path fill="#FFFFFF" d="M41.477,30.432c0.002-0.049-0.009-0.085-0.047-0.102C41.43,30.378,41.447,30.412,41.477,30.432z"/>
		<path fill="#FFFFFF" d="M48.704,20.379c0.021-0.001,0.036-0.007,0.056-0.01c0.016-0.063,0.033-0.123,0.085-0.172
			C48.746,20.21,48.664,20.249,48.704,20.379z"/>
		<path fill="#FFFFFF" d="M35.972,40.871c-0.011,0-0.017,0.005-0.027,0.005C35.961,40.89,35.969,40.883,35.972,40.871z"/>
		<path fill="#FFFFFF" d="M50.023,18.648C50.052,18.595,50.016,18.629,50.023,18.648L50.023,18.648z"/>
		<path fill="#FFFFFF" d="M50.748,18.885c-0.026-0.028-0.042-0.05-0.047-0.067C50.708,18.838,50.72,18.86,50.748,18.885z"/>
		<path fill="#FFFFFF" d="M49.138,21.462l-0.002,0.004C49.17,21.472,49.163,21.47,49.138,21.462z"/>
		<path fill="#FFFFFF" d="M50.137,18.623c-0.029,0.005-0.059,0.016-0.085,0.03C50.068,18.651,50.095,18.643,50.137,18.623z"/>
		<path fill="#FFFFFF" d="M50.068,18.584c0.018-0.012,0.031-0.021,0.046-0.031C50.097,18.531,50.079,18.526,50.068,18.584z"/>
		<path fill="#FFFFFF" d="M49.979,18.718c0.02-0.027,0.045-0.047,0.073-0.065c-0.016,0.003-0.026,0.001-0.028-0.005
			C50.014,18.663,50,18.683,49.979,18.718z"/>
		<path fill="#FFFFFF" d="M38.449,36.676c-0.008,0.001-0.012,0.002-0.021,0.001C38.448,36.765,38.455,36.737,38.449,36.676z"/>
		<polygon fill="#FFFFFF" points="46.975,25.499 46.973,25.489 46.964,25.493 		"/>
		<path fill="#FFFFFF" d="M46.943,25.741c-0.105-0.193-0.056-0.219,0.021-0.249l-0.413-0.224L46.943,25.741z"/>
		<path fill="#FFFFFF" d="M44.957,27.998c-0.031-0.008-0.061-0.025-0.088-0.042C44.883,27.986,44.91,28.008,44.957,27.998z"/>
		<path fill="#FFFFFF" d="M41.354,33.574l-0.005,0.003c0.007,0.01,0.016,0.018,0.022,0.025L41.354,33.574z"/>
		<path fill="#FFFFFF" d="M49.212,22.528c-0.047,0.017-0.085,0.015-0.121,0.006C49.123,22.563,49.163,22.571,49.212,22.528z"/>
		<path fill="#FFFFFF" d="M50.298,18.244c0.032-0.055,0.076-0.048,0.117-0.055c-0.034-0.024-0.097-0.042-0.074-0.076L50.298,18.244z
			"/>
		<path fill="#FFFFFF" d="M51.911,17.941c-0.005-0.029,0.024-0.033,0.02-0.062l-0.069-0.049
			C51.816,17.897,51.834,17.983,51.911,17.941z"/>
		<path fill="#FFFFFF" d="M51.053,18.296c-0.002,0.004-0.006,0.009-0.011,0.012c-0.147-0.152-0.154-0.034-0.159,0.083
			C51.006,18.478,51.018,18.384,51.053,18.296z"/>
		<path fill="#FFFFFF" d="M51.062,18.276c0.012-0.026,0.027-0.05,0.05-0.067C51.053,18.148,51.076,18.225,51.062,18.276z"/>
		<path fill="#FFFFFF" d="M49.998,18.879c0.057-0.009-0.133-0.141-0.071-0.122C49.808,18.6,49.932,19.125,49.998,18.879z"/>
		<polygon fill="#FFFFFF" points="51.315,18.646 51.149,18.554 51.236,18.688 		"/>
		<path fill="#FFFFFF" d="M50.767,19.118l0.13-0.082c-0.025-0.018-0.029-0.043-0.025-0.07
			C50.812,19.033,50.722,19.086,50.767,19.118z"/>
		<path fill="#FFFFFF" d="M50.871,18.966c0.031-0.034,0.055-0.07,0.048-0.11C50.905,18.877,50.876,18.924,50.871,18.966z"/>
		<polygon fill="#FFFFFF" points="51.179,18.843 51.106,18.914 51.236,18.834 		"/>
		<path fill="#FFFFFF" d="M49.728,20.467c0.04,0.052,0.097,0.042,0.114-0.019c-0.014-0.057,0.004-0.118-0.059-0.137L49.728,20.467z"
			/>
		<path fill="#FFFFFF" d="M50.478,20.252c-0.058,0.01-0.092-0.014-0.154-0.033l0.179,0.146L50.478,20.252z"/>
		<path fill="#FFFFFF" d="M50.236,20.645c0.042,0.052,0.006,0.292,0.117,0.127C50.313,20.72,50.368,20.564,50.236,20.645z"/>
		<polygon fill="#FFFFFF" points="48.561,22.334 48.583,22.301 48.28,22.076 		"/>
		<path fill="#FFFFFF" d="M48.021,24.538c0.186-0.094-0.159-0.176,0.033-0.241c-0.046-0.089-0.158,0.053-0.192-0.03
			C47.87,24.414,47.792,24.429,48.021,24.538z"/>
		<path fill="#FFFFFF" d="M47.861,24.268c0-0.023-0.004-0.049-0.011-0.081C47.85,24.227,47.854,24.25,47.861,24.268z"/>
		<path fill="#FFFFFF" d="M43.745,30.545l0.165,0.004l-0.042-0.042C43.806,30.486,43.787,30.505,43.745,30.545z"/>
		<polygon fill="#FFFFFF" points="42.807,31.748 42.827,31.728 42.619,31.641 		"/>
		<path fill="#FFFFFF" d="M42.23,33.009c0.039-0.039,0.037-0.12,0.079-0.16C42.27,32.97,42,32.861,42.23,33.009z"/>
		<path fill="#FFFFFF" d="M72.82,12.445c0.002,0.016,0.002,0.023,0.002,0.034c0.018,0.012,0.042,0.03,0.076,0.066
			C72.936,12.442,73.042,12.542,72.82,12.445z"/>
		<path fill="#FFFFFF" d="M72.822,12.479C72.734,12.423,72.824,12.59,72.822,12.479L72.822,12.479z"/>
		<path fill="#FFFFFF" d="M73.24,12.719l-0.163-0.008c-0.016,0.066,0.074,0.15,0.012,0.158
			C73.231,12.913,73.245,12.847,73.24,12.719z"/>
		<path fill="#FFFFFF" d="M73.46,12.641l-0.08-0.01C73.375,12.658,73.384,12.676,73.46,12.641z"/>
		<path fill="#FFFFFF" d="M73.839,13.336c0.04-0.041,0.054-0.149,0.087-0.213l-0.118-0.008
			C73.825,13.178,73.882,13.264,73.839,13.336z"/>
		<polygon fill="#FFFFFF" points="74.39,13.667 74.296,13.683 74.15,13.737 		"/>
		<path fill="#FFFFFF" d="M74.616,13.889c-0.114,0.049-0.04,0.198-0.133,0.213c0.095,0.045,0.222,0.022,0.336,0.002
			C74.724,14.092,74.658,14.029,74.616,13.889z"/>
		<path fill="#FFFFFF" d="M74.999,14.085c-0.05-0.004-0.112,0.008-0.18,0.02C74.869,14.111,74.926,14.107,74.999,14.085z"/>
		<path fill="#FFFFFF" d="M74.293,13.509l0.048-0.163c-0.016-0.012-0.031-0.024-0.047-0.038
			C74.282,13.343,74.248,13.429,74.293,13.509z"/>
		<path fill="#FFFFFF" d="M74.341,13.34v0.006c0.049,0.041,0.081,0.07,0.097,0.082C74.424,13.417,74.396,13.392,74.341,13.34z"/>
		<path fill="#FFFFFF" d="M74.282,13.3l0.012,0.009C74.3,13.293,74.3,13.287,74.282,13.3z"/>
		<path fill="#FFFFFF" d="M74.62,13.567l0.017,0.001C74.637,13.553,74.634,13.545,74.62,13.567z"/>
		<path fill="#FFFFFF" d="M75.775,14.364c0.003-0.009,0.005-0.021,0.006-0.031l-0.017,0.021L75.775,14.364z"/>
		<path fill="#FFFFFF" d="M75.231,14.163c-0.011-0.048-0.026-0.095-0.046-0.141C75.185,14.083,75.195,14.189,75.231,14.163z"/>
		<path fill="#FFFFFF" d="M74.629,13.618c-0.004,0-0.008,0.001-0.011,0C74.615,13.659,74.621,13.645,74.629,13.618z"/>
		<polygon fill="#FFFFFF" points="75.626,14.563 75.886,14.457 75.752,14.445 		"/>
		<polygon fill="#FFFFFF" points="76.033,14.625 75.936,14.737 76.059,14.716 		"/>
		<path fill="#FFFFFF" d="M88.692,27.387l-0.07,0.022C88.668,27.413,88.699,27.409,88.692,27.387z"/>
		<path fill="#FFFFFF" d="M81.791,20.218l0.107-0.125c-0.068-0.041-0.089-0.098-0.091-0.158
			C81.765,20.106,81.668,20.33,81.791,20.218z"/>
		<path fill="#FFFFFF" d="M85.725,23.935c0.009-0.016,0.018-0.035,0.024-0.053c-0.059,0.007-0.116,0.012-0.168,0.018
			C85.624,23.911,85.673,23.923,85.725,23.935z"/>
		<path fill="#FFFFFF" d="M86.334,23.652l-0.014,0.179C86.334,23.784,86.341,23.726,86.334,23.652z"/>
		<path fill="#FFFFFF" d="M90.459,30.458l0.188,0.006C90.584,30.34,90.537,30.432,90.459,30.458z"/>
		<path fill="#FFFFFF" d="M78.728,16.571c0.025,0.107,0.061,0.175,0.102,0.223C78.811,16.652,78.836,16.488,78.728,16.571z"/>
		<path fill="#FFFFFF" d="M87.332,28.491c0.047,0.026,0.084,0.028,0.115,0.009C87.4,28.473,87.361,28.463,87.332,28.491z"/>
		<path fill="#FFFFFF" d="M79.02,16.965c0-0.022-0.007-0.039-0.008-0.06c-0.068-0.023-0.131-0.05-0.183-0.111
			C78.842,16.899,78.881,16.99,79.02,16.965z"/>
		<path fill="#FFFFFF" d="M94.739,40.399c-0.005,0.01-0.005,0.02-0.01,0.03C94.75,40.423,94.748,40.413,94.739,40.399z"/>
		<path fill="#FFFFFF" d="M77.072,15.467C77.008,15.435,77.053,15.476,77.072,15.467L77.072,15.467z"/>
		<path fill="#FFFFFF" d="M80.206,16.701l0.003,0.005C80.219,16.668,80.215,16.675,80.206,16.701z"/>
		<path fill="#FFFFFF" d="M77.028,15.346c0.011,0.032,0.024,0.063,0.047,0.092C77.07,15.419,77.057,15.39,77.028,15.346z"/>
		<path fill="#FFFFFF" d="M76.996,15.416c-0.016-0.019-0.028-0.035-0.04-0.048C76.932,15.384,76.928,15.402,76.996,15.416z"/>
		<path fill="#FFFFFF" d="M77.156,15.518c-0.034-0.022-0.061-0.05-0.081-0.081c0.004,0.017,0.004,0.027-0.003,0.029
			C77.091,15.478,77.115,15.493,77.156,15.518z"/>
		<path fill="#FFFFFF" d="M92.083,35.241c-0.003,0.006-0.003,0.012-0.009,0.02C92.166,35.299,92.144,35.274,92.083,35.241z"/>
		<polygon fill="#FFFFFF" points="84.239,20.395 84.229,20.393 84.229,20.404 		"/>
		<path fill="#FFFFFF" d="M84.486,20.534c-0.227,0.027-0.244-0.038-0.258-0.13l-0.329,0.34L84.486,20.534z"/>
		<path fill="#FFFFFF" d="M86.262,23.684c-0.018,0.029-0.043,0.05-0.071,0.07C86.227,23.755,86.258,23.738,86.262,23.684z"/>
		<path fill="#FFFFFF" d="M90.424,30.457l0.002,0.008c0.013-0.001,0.024-0.003,0.033-0.007L90.424,30.457z"/>
		<path fill="#FFFFFF" d="M81.389,16.894c0.014,0.055,0.011,0.098-0.004,0.135C81.42,17.001,81.431,16.958,81.389,16.894z"/>
		<path fill="#FFFFFF" d="M76.509,15.029c-0.022,0.036-0.034,0.101-0.074,0.075l0.15,0.053
			C76.521,15.121,76.523,15.073,76.509,15.029z"/>
		<path fill="#FFFFFF" d="M77.332,15.503c-0.018-0.061-0.139,0.138-0.127,0.07C77.048,15.696,77.617,15.583,77.332,15.503z"/>
		<polygon fill="#FFFFFF" points="81.12,17.541 81.086,17.508 80.813,17.77 		"/>
		<path fill="#FFFFFF" d="M83.113,18.945c0.158,0.049,0.159,0.139,0.317-0.063c-0.066-0.235-0.217,0.102-0.251-0.13
			C83.077,18.765,83.207,18.94,83.113,18.945z"/>
		<path fill="#FFFFFF" d="M83.113,18.945c-0.024-0.008-0.052-0.015-0.086-0.019C83.068,18.942,83.095,18.946,83.113,18.945z"/>
		<path fill="#FFFFFF" d="M88.464,26.124l-0.056,0.019c-0.045,0.05-0.032,0.082-0.008,0.146L88.464,26.124z"/>
		<polygon fill="#FFFFFF" points="89.225,27.891 89.062,28.049 89.236,27.923 		"/>
		<path fill="#FFFFFF" d="M90.235,29.246c-0.022-0.064-0.101-0.112-0.123-0.176C90.215,29.182,90,29.386,90.235,29.246z"/>
	</g>
</g>
</svg>
